#!OML:ASF H:\Terrain\Patient Classification 1\Animal1\Tuesday\Animal1.ASF
:FULLY-SPECIFIED
:DEGREES
2161
root 12.9916 16.5586 -12.6872 9.05717 -25.13 2.04477
lowerback -2.14373 -0.80089 0.955222
upperback -4.10858 -1.0868 0.182492
thorax -3.03214 -0.577822 -0.340761
lowerneck -16.8067 1.66887 -3.4116
upperneck 11.5951 1.91672 7.39774
head 6.16033 1.39555 3.1237
rclavicle 7.91287e-014 8.74653e-015
rhumerus -13.005 27.1199 -94.3837
rradius 114.587
rwrist 34.8404
rhand 46.1003 -10.977
rfingers 7.12502
rthumb 67.2153 -13.9716
lclavicle 7.91287e-014 8.74653e-015
lhumerus -34.0611 -34.8674 112.548
lradius 111.716
lwrist -69.5552
lhand 39.9929 68.9674
lfingers 7.12502
lthumb 62.3893 -280.032
rfemur -21.3637 26.2591 18.5619
rtibia 23.8
rfoot -9.83709 -31.6093
rtoes 6.75931
lfemur -12.039 -26.0713 -19.9978
ltibia 16.4765
lfoot -14.7524 20.9524
ltoes 2.90893
2162
root 12.9918 16.5593 -12.6882 9.14648 -25.1263 1.9473
lowerback -2.11688 -0.771552 1.06445
upperback -4.15059 -1.04699 0.202318
thorax -3.09199 -0.561394 -0.380886
lowerneck -16.7523 1.62808 -3.48055
upperneck 11.5827 1.87051 7.44367
head 6.14882 1.3729 3.14414
rclavicle 1.43373e-014 9.14409e-015
rhumerus -13.0734 26.8001 -94.3391
rradius 114.353
rwrist 34.812
rhand 46.4028 -9.48094
rfingers 7.12502
rthumb 67.4393 -11.9887
lclavicle 1.43373e-014 9.14409e-015
lhumerus -34.0976 -35.0132 112.62
lradius 111.683
lwrist -69.4509
lhand 41.3993 69.5819
lfingers 7.12502
lthumb 63.5445 -280.99
rfemur -21.4288 26.2437 18.6306
rtibia 23.7862
rfoot -9.60635 -31.6564
rtoes 5.72118
lfemur -12.1053 -26.0684 -19.8675
ltibia 16.4662
lfoot -14.7929 20.9454
ltoes 3.48976
2163
root 12.9914 16.5591 -12.6869 9.118 -25.1897 2.04668
lowerback -2.19887 -0.733136 1.00591
upperback -4.07528 -0.99812 0.135454
thorax -2.96723 -0.535341 -0.419123
lowerneck -16.849 1.58749 -3.49939
upperneck 11.5812 1.80918 7.52546
head 6.16742 1.35068 3.16965
rclavicle 2.85753e-016 1.51076e-014
rhumerus -12.952 26.5936 -94.2901
rradius 114.191
rwrist 34.7864
rhand 46.5423 -9.03052
rfingers 7.12502
rthumb 67.5419 -11.3104
lclavicle 2.85753e-016 1.51076e-014
lhumerus -33.9645 -35.2211 112.515
lradius 111.66
lwrist -69.253
lhand 43.7658 70.2249
lfingers 7.12502
lthumb 65.4335 -283.337
rfemur -21.4453 26.2684 18.5118
rtibia 23.7644
rfoot -9.638 -31.6597
rtoes 5.75696
lfemur -12.1153 -26.1165 -19.9711
ltibia 16.4815
lfoot -14.7299 21.0848
ltoes 3.51108
2164
root 12.9908 16.5583 -12.6851 9.08715 -25.2319 2.15445
lowerback -2.26699 -0.707456 0.933521
upperback -4.00396 -0.966053 0.0556824
thorax -2.85472 -0.5176 -0.462343
lowerneck -16.976 1.55667 -3.4254
upperneck 11.614 1.74742 7.54333
head 6.20359 1.32797 3.16047
rclavicle 5.29264e-015 9.54166e-015
rhumerus -12.8089 26.3937 -94.2806
rradius 114.048
rwrist 34.56
rhand 46.5377 -8.93815
rfingers 7.12502
rthumb 67.5386 -11.2256
lclavicle 5.29264e-015 9.54166e-015
lhumerus -34.0291 -35.1533 112.502
lradius 111.738
lwrist -69.0365
lhand 45.0866 70.473
lfingers 7.12502
lthumb 66.4528 -284.971
rfemur -21.448 26.223 18.4115
rtibia 23.7617
rfoot -9.89039 -31.5883
rtoes 6.53335
lfemur -12.1182 -26.1455 -20.078
ltibia 16.4778
lfoot -14.6712 21.1658
ltoes 3.40401
2165
root 12.9908 16.5591 -12.6862 9.22126 -25.2515 2.0761
lowerback -2.33444 -0.682702 1.00025
upperback -3.98953 -0.934495 0.0361768
thorax -2.8029 -0.5038 -0.520886
lowerneck -17.148 1.54794 -3.25498
upperneck 11.6957 1.70281 7.48012
head 6.26353 1.3124 3.11266
rclavicle 2.25621e-014 -1.94809e-014
rhumerus -12.7389 26.1456 -94.2874
rradius 113.92
rwrist 34.2024
rhand 46.6782 -8.77482
rfingers 7.12502
rthumb 67.6416 -10.8306
lclavicle 2.25621e-014 -1.94809e-014
lhumerus -34.2578 -35.1037 112.567
lradius 111.954
lwrist -68.6831
lhand 45.3982 70.8092
lfingers 7.12502
lthumb 66.6891 -285.104
rfemur -21.5816 26.2854 18.4307
rtibia 23.778
rfoot -9.90631 -31.6354
rtoes 6.51721
lfemur -12.2266 -26.0908 -19.9461
ltibia 16.4497
lfoot -14.6685 21.1053
ltoes 3.23627
2166
root 12.9907 16.5616 -12.6861 9.34099 -25.2609 2.06657
lowerback -2.46063 -0.671334 1.01684
upperback -3.9536 -0.921462 0.0113586
thorax -2.69534 -0.497526 -0.557721
lowerneck -17.3659 1.55331 -3.15234
upperneck 11.7985 1.68464 7.469
head 6.33513 1.31194 3.09664
rclavicle -6.20146e-014 7.55382e-015
rhumerus -12.6191 26.0268 -94.2585
rradius 113.779
rwrist 33.9314
rhand 46.9808 -9.42347
rfingers 7.12502
rthumb 67.8622 -10.973
lclavicle -6.20146e-014 7.55382e-015
lhumerus -34.3009 -35.239 112.53
lradius 112.057
lwrist -68.3689
lhand 45.4019 71.3401
lfingers 7.12502
lthumb 66.6919 -284.578
rfemur -21.724 26.3588 18.358
rtibia 23.7576
rfoot -9.62058 -31.6964
rtoes 5.61172
lfemur -12.3755 -26.1003 -19.8778
ltibia 16.4884
lfoot -14.7637 21.1175
ltoes 3.09931
2167
root 12.992 16.5622 -12.6853 9.37246 -25.2203 2.06382
lowerback -2.48049 -0.675134 1.07172
upperback -3.91829 -0.927381 -0.00705092
thorax -2.64906 -0.501823 -0.607922
lowerneck -17.4275 1.55863 -3.14741
upperneck 11.7842 1.69035 7.48064
head 6.34053 1.31678 3.10103
rclavicle -4.64038e-015 -1.23246e-014
rhumerus -12.5619 25.9772 -94.2597
rradius 113.709
rwrist 33.6883
rhand 47.3081 -10.4324
rfingers 7.12502
rthumb 68.0987 -11.4224
lclavicle -4.64038e-015 -1.23246e-014
lhumerus -34.2752 -35.357 112.51
lradius 111.945
lwrist -68.3596
lhand 44.9846 71.3356
lfingers 7.12502
lthumb 66.3751 -283.957
rfemur -21.7451 26.3488 18.3397
rtibia 23.7231
rfoot -9.3295 -31.771
rtoes 5.01752
lfemur -12.4454 -26.1487 -19.8546
ltibia 16.5411
lfoot -14.8153 21.1636
ltoes 3.0132
